<svg xmlns="http://www.w3.org/2000/svg" viewBox="0 0 200 200" width="200" height="200">
  <defs>
    <radialGradient id="rg19" cx="40%" cy="40%" r="50%">
      <stop offset="0%" stop-color="#a855f7"/>
      <stop offset="100%" stop-color="#3b0764"/>
    </radialGradient>
  </defs>
  <rect width="200" height="200" fill="#0a0a0f" rx="12"/>
  <circle cx="85" cy="105" r="55" fill="url(#rg19)"/>
  <circle cx="105" cy="88" r="42" fill="#0a0a0f"/>
  <polygon points="148,35 152,25 156,35 166,38 156,42 152,52 148,42 138,38" fill="#0052FF"/>
  <polygon points="170,75 173,68 176,75 183,77 176,80 173,87 170,80 163,77" fill="#a855f7"/>
  <polygon points="155,135 157,130 159,135 164,137 159,139 157,144 155,139 150,137" fill="#0052FF"/>
  <circle cx="148" cy="35" r="2" fill="#0052FF" opacity="0.5"/>
</svg>
