<svg xmlns="http://www.w3.org/2000/svg" viewBox="0 0 200 200" width="200" height="200">
  <rect width="200" height="200" fill="#0a0a0f" rx="12"/>
  <rect x="20" y="20" width="160" height="160" rx="8" fill="#0052FF" opacity="0.15"/>
  <rect x="20" y="20" width="160" height="160" rx="8" fill="none" stroke="#0052FF" stroke-width="2"/>
  <line x1="60" y1="20" x2="60" y2="180" stroke="#0052FF" stroke-width="1" opacity="0.4"/>
  <line x1="100" y1="20" x2="100" y2="180" stroke="#0052FF" stroke-width="1" opacity="0.4"/>
  <line x1="140" y1="20" x2="140" y2="180" stroke="#0052FF" stroke-width="1" opacity="0.4"/>
  <line x1="20" y1="60" x2="180" y2="60" stroke="#0052FF" stroke-width="1" opacity="0.4"/>
  <line x1="20" y1="100" x2="180" y2="100" stroke="#0052FF" stroke-width="1" opacity="0.4"/>
  <line x1="20" y1="140" x2="180" y2="140" stroke="#0052FF" stroke-width="1" opacity="0.4"/>
  <circle cx="60" cy="60" r="5" fill="#0052FF"/>
  <circle cx="100" cy="60" r="5" fill="#0052FF"/>
  <circle cx="140" cy="60" r="5" fill="#0052FF"/>
  <circle cx="60" cy="100" r="5" fill="#a855f7"/>
  <circle cx="100" cy="100" r="8" fill="#0052FF"/>
  <circle cx="140" cy="100" r="5" fill="#a855f7"/>
  <circle cx="60" cy="140" r="5" fill="#0052FF"/>
  <circle cx="100" cy="140" r="5" fill="#0052FF"/>
  <circle cx="140" cy="140" r="5" fill="#0052FF"/>
</svg>
