<svg xmlns="http://www.w3.org/2000/svg" viewBox="0 0 200 200" width="200" height="200">
  <rect width="200" height="200" fill="#0a0a0f" rx="12"/>
  <rect x="30" y="30" width="20" height="20" fill="#a855f7"/>
  <rect x="70" y="30" width="20" height="20" fill="#0052FF"/>
  <rect x="110" y="30" width="20" height="20" fill="#a855f7"/>
  <rect x="150" y="30" width="20" height="20" fill="#7e22ce"/>
  <rect x="30" y="70" width="20" height="20" fill="#0052FF"/>
  <rect x="70" y="70" width="20" height="20" fill="#7e22ce"/>
  <rect x="110" y="70" width="20" height="20" fill="#0052FF"/>
  <rect x="150" y="70" width="20" height="20" fill="#a855f7"/>
  <rect x="30" y="110" width="20" height="20" fill="#7e22ce"/>
  <rect x="70" y="110" width="20" height="20" fill="#a855f7"/>
  <rect x="110" y="110" width="20" height="20" fill="#7e22ce"/>
  <rect x="150" y="110" width="20" height="20" fill="#0052FF"/>
  <rect x="30" y="150" width="20" height="20" fill="#a855f7"/>
  <rect x="70" y="150" width="20" height="20" fill="#0052FF"/>
  <rect x="110" y="150" width="20" height="20" fill="#a855f7"/>
  <rect x="150" y="150" width="20" height="20" fill="#7e22ce"/>
</svg>
